<svg version="1.1" id="Layer_1" xmlns="http://www.w3.org/2000/svg" xmlns:xlink="http://www.w3.org/1999/xlink" x="0px" y="0px"
	 width="100%" viewBox="0 0 500 500" enable-background="new 0 0 500 500" xml:space="preserve">
<path fill="#F8FAFC" opacity="1.000000" stroke="none" 
	d="
M291.000000,501.000000 
	C194.000031,501.000000 97.500046,501.000000 1.000052,501.000000 
	C1.000035,334.333405 1.000035,167.666794 1.000017,1.000141 
	C167.666565,1.000094 334.333130,1.000094 500.999756,1.000047 
	C500.999847,167.666519 500.999847,334.333038 500.999939,500.999786 
	C431.166656,501.000000 361.333344,501.000000 291.000000,501.000000 
M421.896027,375.807190 
	C422.751984,375.369415 423.607941,374.931610 424.463898,374.493805 
	C423.005737,373.619995 421.514191,371.997009 420.097748,372.060089 
	C418.284973,372.140778 416.532684,373.579926 414.754333,374.433655 
	C415.553467,375.851837 416.115295,377.509430 417.227600,378.611572 
	C418.100372,379.476471 419.653778,379.654480 420.904816,380.137634 
	C420.800934,380.473053 420.697083,380.808472 420.593231,381.143860 
	C418.697144,380.772980 416.801086,380.402069 414.481018,379.948242 
	C415.343048,384.267212 418.186127,384.666290 420.956421,384.124237 
	C422.419617,383.837952 423.609344,382.153839 424.922516,381.100830 
	C423.449646,379.605438 421.976776,378.110046 420.853485,376.192047 
	C420.969666,376.050934 421.085876,375.909821 421.896027,375.807190 
M312.748657,254.995422 
	C316.203857,250.732605 319.659058,246.469803 323.660309,241.775589 
	C326.749115,235.841782 329.837952,229.907974 333.348206,223.404129 
	C335.177063,214.932632 337.005920,206.461136 338.961731,197.061203 
	C338.961731,184.133301 338.961731,171.205383 338.961731,158.225403 
	C332.354095,158.225403 326.304169,158.225403 320.069336,158.225403 
	C320.069336,162.731293 320.069336,166.863907 319.914307,171.923477 
	C319.559845,182.938400 319.205414,193.953308 318.408356,205.542175 
	C316.190735,211.994843 313.973145,218.447510 311.235992,225.304489 
	C308.049927,229.825302 304.863892,234.346130 301.123260,239.193314 
	C297.417175,242.467651 293.711090,245.741989 289.343567,249.224548 
	C284.859558,251.701340 280.375549,254.178131 275.101868,256.781921 
	C269.733795,258.178955 264.365723,259.575989 258.063873,260.894745 
	C252.086746,260.761597 246.109619,260.628418 239.467804,260.174683 
	C232.735535,258.049469 226.003281,255.924240 218.826660,253.275635 
	C204.847168,245.333603 194.156372,234.390747 187.631180,219.520355 
	C182.924042,208.793137 181.690796,197.525604 181.990143,185.270416 
	C184.292160,177.178589 186.594177,169.086777 189.153336,160.355469 
	C191.849915,156.097336 194.546509,151.839203 197.871216,147.260056 
	C201.623230,143.665726 205.375244,140.071396 209.786514,136.194977 
	C214.875916,133.171188 219.965332,130.147415 225.864212,127.059891 
	C232.581223,125.643921 239.298218,124.227951 246.944458,122.917175 
	C252.832306,122.917175 258.720154,122.917175 265.654236,122.917175 
	C265.654236,131.643280 265.654236,139.816330 265.364563,148.854324 
	C264.152771,151.809540 267.489441,155.932861 262.094940,157.911316 
	C258.727661,157.954468 255.360367,157.997635 251.569168,157.741562 
	C250.713165,157.861496 249.857147,157.981430 248.187744,158.009735 
	C245.792740,158.441711 243.397720,158.873688 240.339508,159.408890 
	C237.896103,160.643921 235.452698,161.878952 232.353363,163.257156 
	C228.785858,167.124252 225.218369,170.991364 221.140778,175.303207 
	C217.223358,181.494461 216.529282,188.330872 216.990295,195.442322 
	C218.066086,212.036163 233.742950,226.503723 250.882797,225.952469 
	C255.265091,224.996964 259.647369,224.041458 264.725525,222.989197 
	C267.174164,221.372925 269.622803,219.756668 272.692413,217.870972 
	C274.502472,215.601440 276.312531,213.331909 278.691223,210.889847 
	C279.042633,210.216156 279.394073,209.542465 280.382568,208.561584 
	C281.730713,204.081467 283.078857,199.601334 284.754883,194.365021 
	C284.760803,187.909363 284.766724,181.453720 284.916870,174.071442 
	C284.870148,165.708923 284.823425,157.346420 284.906921,148.056763 
	C284.857788,139.368347 284.808655,130.679916 284.899780,121.064568 
	C284.852020,112.040855 284.804260,103.017143 284.899323,93.066628 
	C285.051361,85.437386 285.203400,77.808136 286.188049,70.205566 
	C290.115845,70.496590 294.043610,70.787621 298.436066,71.571701 
	C306.561829,74.598076 312.299164,80.335701 314.737976,88.444229 
	C317.240234,96.763611 318.508026,105.454285 320.172699,114.911324 
	C320.172699,126.897224 320.172699,138.883118 320.172699,150.869019 
	C320.517120,151.065277 320.861511,151.261536 321.205933,151.457794 
	C324.743652,142.968216 328.281342,134.478638 332.118652,125.332779 
	C333.041504,119.887245 333.964386,114.441719 335.050171,108.238129 
	C334.769623,103.031128 334.910309,97.759987 334.129089,92.629219 
	C331.833710,77.553688 324.289764,65.150581 313.692932,54.460712 
	C307.511444,48.224960 301.268951,42.049652 294.859558,35.197781 
	C290.981537,29.039400 287.093231,22.887449 283.228363,16.720829 
	C279.374756,10.572169 273.592651,9.911198 267.375946,15.412292 
	C263.653015,23.721401 265.581055,32.397270 265.400299,41.855522 
	C265.503418,50.240086 265.606537,58.624645 265.402222,67.892494 
	C265.501648,77.262772 265.601074,86.633041 265.400299,96.832726 
	C265.258636,98.867943 265.116943,100.903168 264.962769,103.118195 
	C262.758026,103.291504 260.860168,103.440689 258.201965,103.293457 
	C251.475342,103.618515 244.748718,103.943573 237.214325,104.172256 
	C230.072952,106.406151 222.931580,108.640038 215.077805,110.948898 
	C210.394180,113.657257 205.710556,116.365616 200.376587,119.267395 
	C196.245224,122.827034 192.113876,126.386681 187.378372,130.240082 
	C183.896240,134.774307 180.414108,139.308533 176.360825,144.225662 
	C173.365173,151.057831 170.369507,157.889984 166.746582,165.039536 
	C165.476151,173.018234 164.205734,180.996948 162.543167,189.561798 
	C162.778870,200.840652 163.555801,212.003967 167.800064,222.678574 
	C175.507584,242.063522 187.447708,257.822449 206.385452,268.615173 
	C213.925629,271.704041 221.465790,274.792877 229.779282,278.091644 
	C236.186737,278.712891 242.594193,279.334137 249.930527,280.060852 
	C255.621323,279.666901 261.312103,279.272980 267.812164,278.919464 
	C272.890533,277.327332 277.968903,275.735199 283.791382,274.070160 
	C289.247681,271.069824 294.703949,268.069489 300.808228,264.904083 
	C304.580658,261.702271 308.353119,258.500458 312.748657,254.995422 
M106.368492,338.684662 
	C106.122803,340.280640 105.877113,341.876617 105.587067,343.760773 
	C107.656250,343.760773 109.403107,343.760773 111.345467,343.760773 
	C112.488739,338.486664 113.591057,333.401489 115.012772,326.842896 
	C117.766006,333.838531 119.942764,339.369415 122.119522,344.900299 
	C122.672501,344.880493 123.225479,344.860687 123.778458,344.840881 
	C125.993301,339.115417 128.208130,333.389923 130.800644,326.688171 
	C131.749817,331.623108 132.630814,335.500732 133.213318,339.422729 
	C133.840790,343.647461 135.738373,345.183899 140.257523,343.146637 
	C138.224762,333.475647 136.274445,323.898315 134.143311,314.361389 
	C133.801132,312.830139 132.651276,311.479401 131.874786,310.045197 
	C130.776611,311.469238 129.240677,312.735504 128.660248,314.346130 
	C126.721291,319.726593 125.124405,325.230316 123.396484,330.686859 
	C120.526100,324.997223 118.851341,319.336395 116.846497,313.795044 
	C116.326546,312.357880 114.773811,311.294342 113.695473,310.059204 
	C112.902931,311.362640 111.689751,312.575806 111.387474,313.984467 
	C109.681854,321.932800 108.194962,329.928070 106.368492,338.684662 
M256.998322,340.351379 
	C260.273285,334.071930 258.892334,329.107056 252.916061,325.628662 
	C250.762955,324.375488 248.339706,323.395020 246.585373,321.718994 
	C245.508377,320.690002 244.845276,318.434906 245.176025,317.002869 
	C245.398178,316.040955 247.679398,315.002167 249.050049,314.987396 
	C251.110031,314.965149 253.179367,315.809692 255.504456,316.345581 
	C256.022186,314.852905 256.547638,313.337921 257.238861,311.345001 
	C255.446167,310.672119 253.985107,309.951630 252.440247,309.574280 
	C246.457443,308.112976 240.758514,310.416046 238.779449,314.981659 
	C236.641907,319.912842 238.707016,324.375183 244.763779,328.027374 
	C246.748184,329.223969 248.995056,330.220032 250.517746,331.866516 
	C251.565369,332.999329 252.340668,335.412140 251.821808,336.667694 
	C251.332199,337.852509 248.986069,338.897644 247.466309,338.884460 
	C245.090927,338.863861 242.723709,337.898956 240.044006,337.260468 
	C239.359070,338.929962 238.709564,340.513153 238.085556,342.034149 
	C245.566620,346.045471 250.594986,345.652161 256.998322,340.351379 
M377.553375,343.202972 
	C381.272705,343.457092 385.042145,344.205658 388.698090,343.834747 
	C392.859436,343.412628 392.944550,340.979553 390.369293,338.185791 
	C382.501984,340.360016 379.458466,339.398529 378.085907,333.683319 
	C381.841888,333.683319 385.421600,333.685333 389.001312,333.682922 
	C396.139954,333.678101 397.949707,330.841156 394.140259,324.679718 
	C392.698578,322.347931 390.040009,320.187927 387.463440,319.255219 
	C381.484344,317.090607 375.528259,319.822845 372.687988,325.224945 
	C369.387482,331.502441 370.937531,338.070282 377.553375,343.202972 
M287.616028,338.764343 
	C280.173431,339.855743 278.343658,339.026886 277.466675,333.683319 
	C281.327759,333.683319 285.111755,333.692230 288.895721,333.681274 
	C294.946686,333.663757 296.907349,331.081818 293.957611,325.800598 
	C292.414368,323.037567 289.408356,320.380554 286.461060,319.263031 
	C280.600677,317.040863 274.568573,320.067780 271.855133,325.517792 
	C269.039978,331.172089 270.257782,338.355927 274.637512,341.931305 
	C279.241364,345.689697 286.400604,345.632446 292.340088,341.218811 
	C290.847504,340.182220 289.589417,339.308502 287.616028,338.764343 
M323.309631,341.089233 
	C323.607635,345.824097 326.846466,343.529572 330.025421,343.889740 
	C329.676025,337.427429 329.650116,331.317505 328.909363,325.295532 
	C328.442108,321.497162 325.675262,319.009247 321.677216,318.975739 
	C317.061584,318.937103 312.441956,319.380707 307.732300,319.619598 
	C307.732300,327.646271 307.732300,335.667694 307.732300,344.029053 
	C309.918091,343.914276 311.644867,343.823578 313.769135,343.712036 
	C313.769135,338.425354 313.892975,333.621490 313.727509,328.827637 
	C313.608246,325.372955 315.288330,324.017059 318.460968,323.840881 
	C321.921356,323.648773 323.261810,325.484283 323.264069,328.695374 
	C323.266754,332.521942 323.290039,336.348541 323.309631,341.089233 
M152.170975,338.699951 
	C153.124390,342.422455 155.778900,344.531830 159.353867,344.536377 
	C164.097321,344.542389 168.841782,343.772064 173.569458,343.336823 
	C173.569458,335.264618 173.569458,327.363007 173.569458,319.331848 
	C171.645813,319.331848 170.068878,319.331848 167.918060,319.331848 
	C167.918060,324.560699 168.046417,329.513458 167.875168,334.455811 
	C167.750748,338.046387 165.178223,339.115295 162.037201,339.216034 
	C158.664383,339.324219 157.855301,337.263489 157.891159,334.364014 
	C157.952255,329.424622 157.907990,324.483887 157.907990,319.483459 
	C155.585281,319.483459 153.901352,319.483459 152.042130,319.483459 
	C152.042130,325.899139 152.042130,331.873505 152.170975,338.699951 
M200.481232,343.127747 
	C205.689362,338.479309 205.170898,333.210602 199.175613,330.065796 
	C197.558243,329.217346 195.798386,328.597870 194.301270,327.582367 
	C193.638138,327.132538 193.015747,325.835968 193.202988,325.149780 
	C193.375778,324.516541 194.608688,323.965851 195.461899,323.780518 
	C196.400513,323.576660 197.503342,324.072205 198.417648,323.826965 
	C199.635544,323.500244 200.740509,322.752563 201.893997,322.185730 
	C201.082794,321.163361 200.457245,319.590027 199.419388,319.240326 
	C197.601151,318.627625 195.495178,318.447540 193.572296,318.657990 
	C189.995071,319.049377 186.618713,320.925995 186.706696,324.634338 
	C186.765564,327.114990 189.060806,329.736023 190.832382,331.904480 
	C191.779495,333.063721 193.957611,333.139740 195.173538,334.179993 
	C196.257858,335.107635 196.782730,336.689209 197.554474,337.982208 
	C196.092926,338.531250 194.643784,339.473633 193.166351,339.520264 
	C191.645401,339.568268 190.096893,338.743042 188.687302,338.336517 
	C186.132584,341.609436 186.878326,343.727509 190.564774,344.039124 
	C193.601334,344.295807 196.709763,343.701996 200.481232,343.127747 
M345.734314,343.936066 
	C352.531006,345.568726 358.004089,343.832886 359.584045,339.543488 
	C361.221069,335.099091 359.355255,332.502258 352.153900,328.598236 
	C350.883118,327.909302 350.068787,326.378418 349.043640,325.236328 
	C350.467407,324.743103 351.905548,324.287262 353.311127,323.746704 
	C354.876343,323.144684 356.411896,322.465546 357.960388,321.819977 
	C356.512390,320.818604 355.184418,319.461182 353.581055,318.920776 
	C352.117279,318.427429 349.976624,318.214325 348.804504,318.948181 
	C346.455902,320.418732 343.395538,322.335297 342.841766,324.607056 
	C342.367645,326.552216 344.648895,329.534698 346.343781,331.518127 
	C347.533966,332.910980 349.956421,333.175293 351.502930,334.366394 
	C352.504700,335.138000 352.919373,336.671814 353.597168,337.864136 
	C352.324951,338.491638 351.056183,339.615845 349.779633,339.624695 
	C348.066589,339.636597 346.347565,338.786285 342.901215,337.822266 
	C343.869476,340.541809 344.430664,342.117950 345.734314,343.936066 
M219.559662,319.017456 
	C216.500671,318.802673 212.971680,320.172485 215.781799,322.976929 
	C218.678513,325.867767 217.946228,328.481049 218.103592,331.326965 
	C218.329437,335.411163 218.161194,339.517151 218.161194,343.726990 
	C220.615723,343.726990 222.367188,343.726990 224.673157,343.726990 
	C224.673157,336.184998 224.653366,328.914337 224.682205,321.643921 
	C224.695068,318.402710 222.336426,319.128448 219.559662,319.017456 
M273.891174,374.928619 
	C272.505219,373.907562 271.175842,372.112152 269.722992,372.005981 
	C264.721985,371.640503 259.677795,371.865448 254.775360,371.865448 
	C253.480698,382.369629 253.750381,383.393799 257.791748,383.619019 
	C257.862000,382.327393 257.676147,380.950317 258.064941,379.761169 
	C258.598694,378.128754 259.567993,376.638763 260.350616,375.087738 
	C261.064545,376.544708 261.914154,377.954712 262.440857,379.476471 
	C262.751373,380.373566 262.234955,381.622681 262.663788,382.395142 
	C263.127106,383.229675 264.258545,383.693268 265.787964,384.831940 
	C265.956421,381.591217 265.865875,379.431915 266.271881,377.370453 
	C266.443329,376.500092 267.660828,375.835785 268.402832,375.077789 
	C269.122192,375.827240 270.233215,376.470703 270.471222,377.350403 
	C270.850067,378.750549 270.347717,380.404938 270.788361,381.767365 
	C271.119324,382.790527 272.345795,383.524048 274.058990,385.309021 
	C274.058990,380.952759 274.058990,378.319916 273.891174,374.928619 
M131.615784,377.516937 
	C132.511185,379.658783 133.406570,381.800598 134.301971,383.942444 
	C133.496292,385.190948 133.160721,386.812531 133.806229,387.468109 
	C136.960983,390.672150 143.416077,389.144501 144.132782,384.791931 
	C144.804001,380.715546 144.276459,376.441803 144.276459,372.042816 
	C139.556473,373.178680 133.424149,369.069244 131.615784,377.516937 
M241.229416,372.007629 
	C237.007431,372.007629 232.785446,372.007629 228.314255,372.007629 
	C228.314255,376.148071 228.314255,379.886658 228.314255,383.625244 
	C228.667160,383.877991 229.020065,384.130737 229.372971,384.383484 
	C230.201965,383.483246 231.333435,382.715057 231.796234,381.654938 
	C232.726501,379.523956 230.106140,375.893280 234.313751,375.405212 
	C234.696121,375.360870 235.459274,379.510040 236.249603,381.635986 
	C236.578690,382.521210 237.442734,383.207581 238.063522,383.984375 
	C238.689484,383.229156 239.669235,382.553894 239.862015,381.700775 
	C240.185684,380.268372 239.747391,378.649658 240.138977,377.251953 
	C240.378006,376.398712 241.569458,375.812286 242.333145,375.106018 
	C242.943695,375.775452 243.914307,376.363892 244.087067,377.131805 
	C244.410019,378.567383 243.979248,380.199371 244.415558,381.574005 
	C244.758545,382.654633 245.934204,383.471008 247.338730,385.098633 
	C248.959793,374.600769 247.950150,372.485748 241.229416,372.007629 
M88.950012,377.454529 
	C86.293961,375.831085 83.637909,374.207642 80.981857,372.584198 
	C81.160912,372.112274 81.339966,371.640350 81.519020,371.168427 
	C83.914436,371.784393 86.309845,372.400391 89.149086,373.130493 
	C88.244255,368.243408 85.182014,367.323761 81.951271,368.129822 
	C80.120056,368.586670 78.718147,370.764221 77.122864,372.166779 
	C78.804344,373.897675 80.397957,375.728210 82.202675,377.319305 
	C83.172913,378.174622 84.505417,378.619049 85.674461,379.248871 
	C85.473946,379.825287 85.273430,380.401703 85.072914,380.978119 
	C82.515594,380.305481 79.958275,379.632843 76.960930,378.844482 
	C78.042038,384.093384 81.344910,384.596527 85.045517,384.094269 
	C88.440399,383.633484 89.911896,381.576172 88.950012,377.454529 
M318.937439,373.044098 
	C318.417999,375.760071 316.695618,379.001617 317.608826,381.091614 
	C320.158508,386.927002 325.646149,382.584503 329.986664,383.973572 
	C329.986664,378.922272 330.067261,374.295715 329.914215,369.676941 
	C329.885834,368.820862 328.915588,367.995972 328.380066,367.156677 
	C327.681244,367.856293 326.802460,368.454834 326.336151,369.285034 
	C325.902771,370.056488 325.909271,371.075012 325.798065,371.615570 
	C323.451630,372.001190 321.535339,372.316132 318.937439,373.044098 
M282.519470,373.093475 
	C279.274323,377.345398 279.429077,381.073181 282.942261,383.277191 
	C286.368256,385.426422 290.129547,384.279419 292.193420,380.353394 
	C289.547577,380.353394 286.966644,380.353394 284.385712,380.353394 
	C284.389618,379.991821 284.393494,379.630249 284.397400,379.268677 
	C287.233948,379.103851 290.070496,378.939026 292.933594,378.772675 
	C291.886719,372.188141 289.620514,370.884125 282.519470,373.093475 
M313.244659,415.037018 
	C316.461975,415.447083 319.428040,415.348358 320.850922,411.336884 
	C318.051147,411.501373 315.599030,411.645416 313.146912,411.789459 
	C313.125275,411.308716 313.103607,410.827942 313.081940,410.347198 
	C315.894165,410.144226 318.706390,409.941254 321.723694,409.723480 
	C321.249268,405.861542 319.739685,402.856232 316.027588,403.104858 
	C313.647400,403.264313 310.380585,404.803101 309.318939,406.723145 
	C307.577454,409.872620 308.848450,413.192657 313.244659,415.037018 
M184.085327,379.029083 
	C184.591080,378.123291 185.707199,377.032715 185.498444,376.343231 
	C184.518127,373.105103 181.978271,371.017395 178.768967,372.105560 
	C176.542206,372.860535 174.018051,375.046814 173.230011,377.184601 
	C172.105240,380.235901 173.883484,383.083405 177.308685,383.955688 
	C180.496353,384.767456 183.423248,384.344208 185.236191,380.283142 
	C182.241730,380.283142 179.754868,380.283142 177.268021,380.283142 
	C177.291168,379.870819 177.314316,379.458496 177.337463,379.046173 
	C179.305756,379.046173 181.274048,379.046173 184.085327,379.029083 
M345.197296,383.794464 
	C349.947906,383.904877 347.439728,380.289978 347.690063,378.428314 
	C348.085022,375.490906 347.145569,372.645874 343.674133,372.048889 
	C340.804901,371.555481 337.804321,371.480957 336.984650,375.731018 
	C339.435181,375.526733 341.546844,375.350708 343.658478,375.174713 
	C343.698669,375.616486 343.738831,376.058258 343.778992,376.500031 
	C342.919891,376.637787 342.062561,376.879303 341.201355,376.893951 
	C338.557190,376.938995 335.845581,377.206909 336.048157,380.658936 
	C336.269043,384.422119 339.257019,384.227020 341.985229,383.961945 
	C342.794922,383.883270 343.582306,383.574799 345.197296,383.794464 
M177.300095,407.565613 
	C176.503799,407.206726 175.570663,407.005280 174.939346,406.456573 
	C173.571854,405.268036 172.358871,403.901794 171.082687,402.608215 
	C170.669312,402.981750 170.255936,403.355255 169.842545,403.728790 
	C171.411728,407.481750 172.980911,411.234680 174.403534,414.637146 
	C173.025040,416.146179 172.021408,417.244873 171.017776,418.343567 
	C171.601334,418.789703 172.401169,419.738556 172.731644,419.596405 
	C174.303101,418.920319 176.458542,418.304565 177.106094,417.014679 
	C179.279739,412.685028 180.899384,408.077209 182.731079,403.575867 
	C182.170364,403.213348 181.609650,402.850830 181.048920,402.488312 
	C179.909164,403.955505 178.769409,405.422668 177.300095,407.565613 
M400.274506,378.516479 
	C401.178925,377.372589 402.083344,376.228729 402.987732,375.084839 
	C403.670929,376.386200 404.473145,377.642609 404.989227,379.007141 
	C405.264221,379.734283 404.839050,380.721222 405.100433,381.459717 
	C405.422272,382.368988 406.130219,383.141632 406.671265,383.973267 
	C407.373322,383.116241 408.571899,382.326569 408.698700,381.391571 
	C409.687256,374.101685 407.700531,372.102570 400.225281,372.473541 
	C399.162537,372.526276 398.088898,372.359131 396.606903,372.268433 
	C396.606903,373.957520 396.606934,375.262238 396.606934,376.566925 
	C396.606934,378.877960 396.606903,381.189026 396.606903,383.556213 
	C401.527069,384.969360 399.886414,381.363647 400.274506,378.516479 
M200.360382,410.059814 
	C200.243729,408.927216 200.384048,407.687592 199.964676,406.681122 
	C198.391190,402.904724 195.146439,402.325195 191.699585,403.161316 
	C188.380341,403.966522 186.725357,406.480621 187.210419,409.880280 
	C187.734070,413.550232 190.382080,415.722748 193.811966,415.060547 
	C196.124756,414.614044 198.070557,412.266785 200.360382,410.059814 
M382.103455,372.100037 
	C378.858063,373.250214 376.950287,375.674316 377.970001,378.905426 
	C378.596252,380.889679 380.676453,383.391296 382.496796,383.769745 
	C384.663086,384.220093 387.835266,383.267914 389.463898,381.741547 
	C390.685516,380.596588 391.158356,376.662537 390.186340,375.605560 
	C388.471069,373.740417 385.399719,373.122406 382.103455,372.100037 
M214.415710,408.405762 
	C213.574127,409.588318 212.732544,410.770844 211.890961,411.953400 
	C211.217728,410.646820 210.426697,409.383942 209.918732,408.015991 
	C209.646469,407.282806 210.079987,406.284790 209.800858,405.557587 
	C209.452576,404.650146 208.698349,403.898468 208.119400,403.079529 
	C207.444809,403.964966 206.289734,404.791016 206.171844,405.745239 
	C205.248734,413.216339 207.065536,415.022461 214.681183,414.625153 
	C215.617630,414.576294 216.568634,414.806396 217.799835,414.937927 
	C217.799835,410.915100 217.799835,407.161255 217.799835,403.286713 
	C213.490616,402.446869 214.700195,405.553497 214.415710,408.405762 
M117.683731,377.773682 
	C118.620300,376.882660 119.556862,375.991638 120.493439,375.100616 
	C121.058556,376.177460 121.828094,377.200470 122.129784,378.346649 
	C122.416412,379.435577 121.961380,380.735870 122.305687,381.788391 
	C122.583244,382.636871 123.566391,383.254547 124.236519,383.974609 
	C124.805954,383.342499 125.727852,382.789490 125.890213,382.065979 
	C127.489594,374.939392 124.937569,372.070496 117.706329,372.587982 
	C116.626907,372.665222 115.515503,372.295349 114.173294,372.095825 
	C114.173294,376.116150 114.173294,379.871887 114.173294,383.779602 
	C119.324409,384.463104 116.963058,380.571564 117.683731,377.773682 
M302.014771,383.681854 
	C302.236420,381.734924 302.245544,379.729065 302.762848,377.864136 
	C303.053253,376.817047 304.183899,376.002991 304.936035,375.083984 
	C305.680328,375.980042 306.755127,376.770782 307.082886,377.799561 
	C307.468414,379.009583 306.971954,380.488861 307.305237,381.731384 
	C307.534180,382.584869 308.525269,383.233917 309.175659,383.974365 
	C309.768372,383.196594 310.763306,382.479340 310.890778,381.631622 
	C312.008850,374.196228 310.176025,372.351807 302.301025,372.614380 
	C301.369232,372.645477 300.424316,372.281647 298.977051,372.002991 
	C298.977051,375.611938 298.858307,378.896637 299.077576,382.158630 
	C299.121246,382.808350 300.457642,383.371185 302.014771,383.681854 
M191.410645,380.675659 
	C195.741104,386.027710 200.775620,385.591705 203.930801,378.644135 
	C201.860809,379.464050 200.544891,380.272705 199.147568,380.454041 
	C197.872086,380.619568 196.120239,380.518738 195.309479,379.757050 
	C194.688400,379.173553 194.709717,376.833618 195.341827,376.255920 
	C196.161591,375.506775 197.904282,375.458893 199.188828,375.613708 
	C200.473816,375.768616 201.683807,376.545349 203.688782,377.358673 
	C202.368210,372.257843 199.408859,371.361664 195.892746,372.043945 
	C191.618164,372.873444 190.491974,375.954865 191.410645,380.675659 
M221.135162,374.584106 
	C218.453247,373.780853 215.741623,372.320068 213.101410,372.439331 
	C211.686844,372.503265 209.496857,375.174927 209.285507,376.872559 
	C209.045242,378.802216 210.093521,382.071930 211.533768,382.756683 
	C213.735077,383.803345 217.053329,383.905029 219.351883,383.008789 
	C222.674683,381.713165 222.537201,378.354828 221.135162,374.584106 
M283.403931,403.892456 
	C277.717651,402.041382 273.374512,403.487427 273.248474,407.802673 
	C273.184021,410.009094 274.755493,413.747375 276.314087,414.180847 
	C278.863586,414.889923 282.746063,414.357117 284.717224,412.721924 
	C287.356537,410.532440 286.640747,406.987213 283.403931,403.892456 
M103.133202,372.004883 
	C99.026459,371.595978 95.706352,372.576111 95.053398,377.269043 
	C94.575760,380.701904 96.186470,383.150391 99.592308,383.972290 
	C102.953049,384.783295 106.219017,384.124420 107.592384,380.671753 
	C109.061699,376.977783 107.960159,373.788849 103.133202,372.004883 
M295.528839,405.769867 
	C294.398468,404.711304 293.268066,403.652740 292.137665,402.594177 
	C291.709320,402.967529 291.280945,403.340881 290.852570,403.714233 
	C292.175568,406.874878 293.315735,410.129303 294.874634,413.168976 
	C296.336121,416.018707 298.471771,415.987793 299.911652,413.179016 
	C301.474335,410.130646 302.564484,406.839996 303.966553,403.394806 
	C298.096558,401.961853 299.849030,407.909363 297.201294,409.591766 
	C296.732849,408.527252 296.276062,407.489197 295.528839,405.769867 
M361.282379,383.904877 
	C361.505280,383.184753 362.040100,381.899994 361.906097,381.825928 
	C356.685608,378.941925 358.314667,376.154572 358.829956,376.329285 
	C358.376526,373.754425 357.923096,371.179565 357.469666,368.604706 
	C358.182800,369.650208 358.895935,370.695740 359.609070,371.741241 
	C357.271301,372.182220 354.933533,372.623230 353.384613,372.915405 
	C354.048370,375.234375 354.854401,377.067749 355.054626,378.965088 
	C355.413269,382.364502 356.991364,384.121094 361.282379,383.904877 
M237.411896,398.365479 
	C236.364960,398.960144 234.453720,399.499237 234.411362,400.158417 
	C234.137009,404.426880 234.122925,408.730957 234.397873,412.999268 
	C234.450607,413.817627 236.165405,414.528900 237.872055,415.898315 
	C237.872055,409.291260 237.872055,404.203613 237.411896,398.365479 
M160.059860,383.012848 
	C161.036301,383.232208 162.012756,383.451599 162.989212,383.670959 
	C162.531082,379.133423 165.589920,376.149963 167.780151,372.778809 
	C167.803482,372.742889 167.578583,372.545654 167.483124,372.438904 
	C165.131241,372.438904 162.790237,372.438904 159.978424,372.438904 
	C159.978424,375.594086 159.978424,378.853333 160.059860,383.012848 
M266.389587,398.316376 
	C265.518372,399.117279 263.957916,399.867676 263.894867,400.727814 
	C263.617432,404.513519 263.653229,408.337128 263.852539,412.132446 
	C263.903351,413.100403 264.968903,414.015045 265.568237,414.954193 
	C266.091614,413.945618 267.038330,412.947968 267.064667,411.926575 
	C267.175385,407.633636 267.010956,403.333618 266.389587,398.316376 
M244.765884,408.437988 
	C244.768845,409.759949 244.578690,411.121643 244.839523,412.390594 
	C245.027847,413.306885 245.815842,414.099945 246.336380,414.947968 
	C246.936768,414.021271 248.000854,413.120789 248.055054,412.163177 
	C248.260193,408.539307 248.251587,404.891144 248.066574,401.265106 
	C248.013092,400.216675 247.101166,399.212036 246.582794,398.187286 
	C245.977890,399.300049 245.023956,400.360321 244.846970,401.537445 
	C244.555435,403.476685 244.766479,405.491547 244.765884,408.437988 
M371.853119,382.077942 
	C371.853027,379.429443 371.965759,376.772980 371.779022,374.137695 
	C371.727875,373.415558 370.862885,372.321625 370.217957,372.197876 
	C369.632233,372.085510 368.267487,373.021301 368.230347,373.562561 
	C368.026917,376.526306 368.037231,379.518127 368.279633,382.475281 
	C368.300720,382.732330 370.537872,382.807709 371.853119,382.077942 
M331.164246,401.557190 
	C330.503998,400.718414 329.843781,399.879669 329.183533,399.040894 
	C328.540588,399.783478 327.447998,400.468689 327.344482,401.280090 
	C327.097748,403.214142 327.098480,405.247192 327.441620,407.160919 
	C327.615295,408.129425 328.748627,408.925842 329.448059,409.800079 
	C329.979614,408.960663 330.821503,408.173828 330.974457,407.270325 
	C331.245422,405.670227 331.097656,403.999268 331.164246,401.557190 
M224.425110,311.306458 
	C222.759583,310.936829 221.079239,310.287720 219.437927,310.374756 
	C218.969650,310.399567 217.984283,312.855591 218.364471,313.670074 
	C218.859879,314.731537 221.073074,316.155060 221.504929,315.866028 
	C222.847290,314.967407 223.697372,313.333405 224.425110,311.306458 
z"/>
<path fill="#B081F4" opacity="1.000000" stroke="none" 
	d="
M229.005966,277.881744 
	C221.465790,274.792877 213.925629,271.704041 206.186356,267.950775 
	C205.284286,265.113739 204.896378,262.770905 203.829208,260.794952 
	C193.995453,242.587189 184.152740,224.382278 174.065765,206.314346 
	C170.724243,200.328979 166.665924,194.743790 162.935318,188.975647 
	C164.205734,180.996948 165.476151,173.018234 167.431702,165.043381 
	C169.431274,167.076035 170.733948,169.112579 172.062485,171.132111 
	C175.322968,176.088394 178.595367,181.036865 181.862976,185.988464 
	C181.690796,197.525604 182.924042,208.793137 187.631180,219.520355 
	C194.156372,234.390747 204.847168,245.333603 218.751038,253.759094 
	C219.120071,255.998917 219.302933,257.877533 220.055832,259.489990 
	C222.939911,265.666931 226.007095,271.758392 229.005966,277.881744 
z"/>
<path fill="#EB21D2" opacity="1.000000" stroke="none" 
	d="
M320.316071,113.982452 
	C318.508026,105.454285 317.240234,96.763611 314.737976,88.444229 
	C312.299164,80.335701 306.561829,74.598076 298.211548,70.927628 
	C297.581604,68.697556 297.472168,66.953850 296.724335,65.550262 
	C290.161163,53.231583 283.583557,40.918186 276.790985,28.725363 
	C274.153046,23.990229 270.953369,19.568035 268.009613,15.003284 
	C273.592651,9.911198 279.374756,10.572169 283.228363,16.720829 
	C287.093231,22.887449 290.981537,29.039400 294.942291,35.926819 
	C295.490143,38.386158 295.701263,40.240414 296.472656,41.821259 
	C298.139679,45.237541 300.120117,48.499565 301.926514,51.849380 
	C311.276398,69.187782 320.557037,86.564003 330.026245,103.836899 
	C331.125580,105.842262 333.242249,107.289948 334.887238,108.996185 
	C333.964386,114.441719 333.041504,119.887245 331.608887,125.656616 
	C329.754761,124.705307 328.304749,123.522751 327.088654,122.135185 
	C324.760864,119.479202 322.566071,116.706642 320.316071,113.982452 
z"/>
<path fill="#AC88F6" opacity="1.000000" stroke="none" 
	d="
M162.739243,189.268723 
	C166.665924,194.743790 170.724243,200.328979 174.065765,206.314346 
	C184.152740,224.382278 193.995453,242.587189 203.829208,260.794952 
	C204.896378,262.770905 205.284286,265.113739 205.977707,267.685730 
	C187.447708,257.822449 175.507584,242.063522 167.800064,222.678574 
	C163.555801,212.003967 162.778870,200.840652 162.739243,189.268723 
z"/>
<path fill="#D74CE0" opacity="1.000000" stroke="none" 
	d="
M284.776672,148.983902 
	C284.823425,157.346420 284.870148,165.708923 284.512878,174.485809 
	C282.994110,173.763809 281.611725,172.787857 280.815765,171.460297 
	C278.624573,167.805725 276.895782,163.863159 274.580292,160.296646 
	C271.824402,156.051743 268.648285,152.079651 265.654236,147.989365 
	C265.654236,139.816330 265.654236,131.643280 265.654236,122.917175 
	C258.720154,122.917175 252.832306,122.917175 246.467041,122.501862 
	C245.190750,120.120308 244.456085,118.124931 243.579620,116.193916 
	C241.767075,112.200676 239.879074,108.241699 238.022095,104.268631 
	C244.748718,103.943573 251.475342,103.618515 258.591431,103.871689 
	C259.262787,105.717590 259.273743,107.131836 259.868073,108.230522 
	C266.730469,120.916977 273.622314,133.588791 280.697083,146.157150 
	C281.427063,147.453949 283.387299,148.058273 284.776672,148.983902 
z"/>
<path fill="#C460E9" opacity="1.000000" stroke="none" 
	d="
M221.650879,174.858475 
	C225.218369,170.991364 228.785858,167.124252 232.722382,163.535950 
	C239.448029,175.778183 245.856567,187.714386 252.142624,199.714767 
	C256.197906,207.456512 260.073517,215.292313 264.029663,223.085938 
	C259.647369,224.041458 255.265091,224.996964 250.396545,225.551300 
	C242.634033,211.634735 235.417740,198.086487 228.039734,184.626862 
	C226.175201,181.225433 223.794418,178.106979 221.650879,174.858475 
z"/>
<path fill="#BF6AEC" opacity="1.000000" stroke="none" 
	d="
M221.395828,175.080841 
	C223.794418,178.106979 226.175201,181.225433 228.039734,184.626862 
	C235.417740,198.086487 242.634033,211.634735 249.958069,225.496124 
	C233.742950,226.503723 218.066086,212.036163 216.990295,195.442322 
	C216.529282,188.330872 217.223358,181.494461 221.395828,175.080841 
z"/>
<path fill="#E727D5" opacity="1.000000" stroke="none" 
	d="
M267.692780,15.207790 
	C270.953369,19.568035 274.153046,23.990229 276.790985,28.725363 
	C283.583557,40.918186 290.161163,53.231583 296.724335,65.550262 
	C297.472168,66.953850 297.581604,68.697556 297.979248,70.681099 
	C294.043610,70.787621 290.115845,70.496590 285.435120,70.035339 
	C283.637146,68.605972 282.371765,67.470482 281.584320,66.066856 
	C277.603333,58.970978 273.838531,51.752361 269.773743,44.706100 
	C268.895233,43.183262 267.094177,42.192654 265.718048,40.956894 
	C265.581055,32.397270 263.653015,23.721401 267.692780,15.207790 
z"/>
<path fill="#EF1DD1" opacity="1.000000" stroke="none" 
	d="
M334.968689,108.617157 
	C333.242249,107.289948 331.125580,105.842262 330.026245,103.836899 
	C320.557037,86.564003 311.276398,69.187782 301.926514,51.849380 
	C300.120117,48.499565 298.139679,45.237541 296.472656,41.821259 
	C295.701263,40.240414 295.490143,38.386158 295.039490,36.251503 
	C301.268951,42.049652 307.511444,48.224960 313.692932,54.460712 
	C324.289764,65.150581 331.833710,77.553688 334.129089,92.629219 
	C334.910309,97.759987 334.769623,103.031128 334.968689,108.617157 
z"/>
<path fill="#FF6CC6" opacity="1.000000" stroke="none" 
	d="
M106.501007,338.296021 
	C108.194962,329.928070 109.681854,321.932800 111.387474,313.984467 
	C111.689751,312.575806 112.902931,311.362640 113.695473,310.059204 
	C114.773811,311.294342 116.326546,312.357880 116.846497,313.795044 
	C118.851341,319.336395 120.526100,324.997223 123.396484,330.686859 
	C125.124405,325.230316 126.721291,319.726593 128.660248,314.346130 
	C129.240677,312.735504 130.776611,311.469238 131.874786,310.045197 
	C132.651276,311.479401 133.801132,312.830139 134.143311,314.361389 
	C136.274445,323.898315 138.224762,333.475647 140.257523,343.146637 
	C135.738373,345.183899 133.840790,343.647461 133.213318,339.422729 
	C132.630814,335.500732 131.749817,331.623108 130.800644,326.688171 
	C128.208130,333.389923 125.993301,339.115417 123.778458,344.840881 
	C123.225479,344.860687 122.672501,344.880493 122.119522,344.900299 
	C119.942764,339.369415 117.766006,333.838531 115.012772,326.842896 
	C113.591057,333.401489 112.488739,338.486664 111.345467,343.760773 
	C109.403107,343.760773 107.656250,343.760773 105.587067,343.760773 
	C105.877113,341.876617 106.122803,340.280640 106.501007,338.296021 
z"/>
<path fill="#DD39DB" opacity="1.000000" stroke="none" 
	d="
M338.834808,197.989639 
	C337.005920,206.461136 335.177063,214.932632 332.791199,223.653259 
	C329.180145,218.987915 326.220093,214.011002 323.019592,209.193848 
	C321.944794,207.576172 320.257996,206.365143 318.850952,204.968231 
	C319.205414,193.953308 319.559845,182.938400 320.335327,171.503876 
	C321.566528,171.844421 322.626190,172.463882 323.146881,173.387268 
	C326.878998,180.005554 330.386993,186.752899 334.232574,193.302841 
	C335.307922,195.134430 337.276154,196.441788 338.834808,197.989639 
z"/>
<path fill="#DA3EDC" opacity="1.000000" stroke="none" 
	d="
M284.841797,148.520325 
	C283.387299,148.058273 281.427063,147.453949 280.697083,146.157150 
	C273.622314,133.588791 266.730469,120.916977 259.868073,108.230522 
	C259.273743,107.131836 259.262787,105.717590 258.971558,104.019905 
	C260.860168,103.440689 262.758026,103.291504 264.962769,103.118195 
	C265.116943,100.903168 265.258636,98.867943 265.865234,96.428162 
	C267.777008,97.458397 269.618500,98.666229 270.598206,100.369705 
	C273.794708,105.927734 276.510834,111.764664 279.771210,117.281906 
	C280.889160,119.173729 283.066284,120.439636 284.759521,121.991501 
	C284.808655,130.679916 284.857788,139.368347 284.841797,148.520325 
z"/>
<path fill="#C85AE6" opacity="1.000000" stroke="none" 
	d="
M264.377594,223.037567 
	C260.073517,215.292313 256.197906,207.456512 252.142624,199.714767 
	C245.856567,187.714386 239.448029,175.778183 233.050354,163.464386 
	C235.452698,161.878952 237.896103,160.643921 240.680115,159.710938 
	C241.688049,161.691925 242.190521,163.460571 243.047943,165.036041 
	C252.690948,182.754639 262.388489,200.443527 272.071411,218.140411 
	C269.622803,219.756668 267.174164,221.372925 264.377594,223.037567 
z"/>
<path fill="#DE36DA" opacity="1.000000" stroke="none" 
	d="
M284.829651,121.528030 
	C283.066284,120.439636 280.889160,119.173729 279.771210,117.281906 
	C276.510834,111.764664 273.794708,105.927734 270.598206,100.369705 
	C269.618500,98.666229 267.777008,97.458397 266.015320,96.013458 
	C265.601074,86.633041 265.501648,77.262772 265.867615,67.465988 
	C267.033386,67.658218 267.964722,68.146881 268.397919,68.916100 
	C272.125916,75.536308 275.617310,82.294891 279.515320,88.811195 
	C280.736755,90.853043 282.980652,92.283249 284.756500,93.993423 
	C284.804260,103.017143 284.852020,112.040855 284.829651,121.528030 
z"/>
<path fill="#CF52E3" opacity="1.000000" stroke="none" 
	d="
M251.993088,158.040802 
	C255.360367,157.997635 258.727661,157.954468 262.588531,158.335480 
	C268.868011,169.757431 274.591309,180.789185 280.516144,191.711639 
	C281.288849,193.136139 283.097931,193.998474 284.426971,195.121201 
	C283.078857,199.601334 281.730713,204.081467 279.784302,208.565216 
	C278.366089,207.541656 277.376587,206.607819 276.752014,205.473114 
	C269.003235,191.395386 261.278656,177.304001 253.639114,163.166840 
	C252.800461,161.614868 252.528091,159.756866 251.993088,158.040802 
z"/>
<path fill="#CA56E5" opacity="1.000000" stroke="none" 
	d="
M272.381897,218.005676 
	C262.388489,200.443527 252.690948,182.754639 243.047943,165.036041 
	C242.190521,163.460571 241.688049,161.691925 241.011719,159.659332 
	C243.397720,158.873688 245.792740,158.441711 248.636856,158.405212 
	C256.349426,172.314346 263.557892,185.858017 270.909882,199.323318 
	C273.107849,203.348953 275.707153,207.155472 278.122559,211.062378 
	C276.312531,213.331909 274.502472,215.601440 272.381897,218.005676 
z"/>
<path fill="#E22FD7" opacity="1.000000" stroke="none" 
	d="
M284.827911,93.530029 
	C282.980652,92.283249 280.736755,90.853043 279.515320,88.811195 
	C275.617310,82.294891 272.125916,75.536308 268.397919,68.916100 
	C267.964722,68.146881 267.033386,67.658218 266.021301,67.024353 
	C265.606537,58.624645 265.503418,50.240086 265.559174,41.406208 
	C267.094177,42.192654 268.895233,43.183262 269.773743,44.706100 
	C273.838531,51.752361 277.603333,58.970978 281.584320,66.066856 
	C282.371765,67.470482 283.637146,68.605972 285.018799,70.022003 
	C285.203400,77.808136 285.051361,85.437386 284.827911,93.530029 
z"/>
<path fill="#E22FD7" opacity="1.000000" stroke="none" 
	d="
M338.898254,197.525421 
	C337.276154,196.441788 335.307922,195.134430 334.232574,193.302841 
	C330.386993,186.752899 326.878998,180.005554 323.146881,173.387268 
	C322.626190,172.463882 321.566528,171.844421 320.412842,171.040405 
	C320.069336,166.863907 320.069336,162.731293 320.069336,158.225403 
	C326.304169,158.225403 332.354095,158.225403 338.961731,158.225403 
	C338.961731,171.205383 338.961731,184.133301 338.898254,197.525421 
z"/>
<path fill="#B678F1" opacity="1.000000" stroke="none" 
	d="
M181.926559,185.629440 
	C178.595367,181.036865 175.322968,176.088394 172.062485,171.132111 
	C170.733948,169.112579 169.431274,167.076035 167.745331,164.884689 
	C170.369507,157.889984 173.365173,151.057831 176.700104,144.400482 
	C179.588104,149.165604 181.989883,153.848206 184.778702,158.287689 
	C185.573547,159.552994 187.492645,160.112030 188.896194,160.994949 
	C186.594177,169.086777 184.292160,177.178589 181.926559,185.629440 
z"/>
<path fill="#D058E4" opacity="1.000000" stroke="none" 
	d="
M237.618210,104.220444 
	C239.879074,108.241699 241.767075,112.200676 243.579620,116.193916 
	C244.456085,118.124931 245.190750,120.120308 246.002441,122.449265 
	C239.298218,124.227951 232.581223,125.643921 225.317230,126.763863 
	C221.776886,121.269867 218.783554,116.071899 215.790207,110.873932 
	C222.931580,108.640038 230.072952,106.406151 237.618210,104.220444 
z"/>
<path fill="#B678F1" opacity="1.000000" stroke="none" 
	d="
M229.392624,277.986694 
	C226.007095,271.758392 222.939911,265.666931 220.055832,259.489990 
	C219.302933,257.877533 219.120071,255.998917 218.973221,254.020782 
	C226.003281,255.924240 232.735535,258.049469 239.785904,260.742981 
	C243.069885,267.526001 246.035767,273.740692 249.001648,279.955383 
	C242.594193,279.334137 236.186737,278.712891 229.392624,277.986694 
z"/>
<path fill="#D743DE" opacity="1.000000" stroke="none" 
	d="
M318.629639,205.255219 
	C320.257996,206.365143 321.944794,207.576172 323.019592,209.193848 
	C326.220093,214.011002 329.180145,218.987915 332.580475,223.938293 
	C329.837952,229.907974 326.749115,235.841782 323.195190,241.691269 
	C321.246918,239.265320 319.797974,236.901123 318.272339,234.587524 
	C316.129944,231.338699 313.930573,228.127472 311.755554,224.900177 
	C313.973145,218.447510 316.190735,211.994843 318.629639,205.255219 
z"/>
<path fill="#D14AE1" opacity="1.000000" stroke="none" 
	d="
M284.590942,194.743103 
	C283.097931,193.998474 281.288849,193.136139 280.516144,191.711639 
	C274.591309,180.789185 268.868011,169.757431 263.042908,158.403473 
	C267.489441,155.932861 264.152771,151.809540 265.509399,148.421844 
	C268.648285,152.079651 271.824402,156.051743 274.580292,160.296646 
	C276.895782,163.863159 278.624573,167.805725 280.815765,171.460297 
	C281.611725,172.787857 282.994110,173.763809 284.440796,174.949127 
	C284.766724,181.453720 284.760803,187.909363 284.590942,194.743103 
z"/>
<path fill="#FF6EC7" opacity="1.000000" stroke="none" 
	d="
M256.747559,340.636993 
	C250.594986,345.652161 245.566620,346.045471 238.085556,342.034149 
	C238.709564,340.513153 239.359070,338.929962 240.044006,337.260468 
	C242.723709,337.898956 245.090927,338.863861 247.466309,338.884460 
	C248.986069,338.897644 251.332199,337.852509 251.821808,336.667694 
	C252.340668,335.412140 251.565369,332.999329 250.517746,331.866516 
	C248.995056,330.220032 246.748184,329.223969 244.763779,328.027374 
	C238.707016,324.375183 236.641907,319.912842 238.779449,314.981659 
	C240.758514,310.416046 246.457443,308.112976 252.440247,309.574280 
	C253.985107,309.951630 255.446167,310.672119 257.238861,311.345001 
	C256.547638,313.337921 256.022186,314.852905 255.504456,316.345581 
	C253.179367,315.809692 251.110031,314.965149 249.050049,314.987396 
	C247.679398,315.002167 245.398178,316.040955 245.176025,317.002869 
	C244.845276,318.434906 245.508377,320.690002 246.585373,321.718994 
	C248.339706,323.395020 250.762955,324.375488 252.916061,325.628662 
	C258.892334,329.107056 260.273285,334.071930 256.747559,340.636993 
z"/>
<path fill="#FF6CC6" opacity="1.000000" stroke="none" 
	d="
M377.205078,343.045959 
	C370.937531,338.070282 369.387482,331.502441 372.687988,325.224945 
	C375.528259,319.822845 381.484344,317.090607 387.463440,319.255219 
	C390.040009,320.187927 392.698578,322.347931 394.140259,324.679718 
	C397.949707,330.841156 396.139954,333.678101 389.001312,333.682922 
	C385.421600,333.685333 381.841888,333.683319 378.085907,333.683319 
	C379.458466,339.398529 382.501984,340.360016 390.369293,338.185791 
	C392.944550,340.979553 392.859436,343.412628 388.698090,343.834747 
	C385.042145,344.205658 381.272705,343.457092 377.205078,343.045959 
M383.554138,328.981964 
	C385.299774,328.981964 387.045410,328.981964 388.984161,328.981964 
	C388.968903,324.904114 386.905945,323.884338 383.909637,323.831390 
	C380.729095,323.775177 378.558685,324.887146 378.205719,328.739899 
	C379.817719,328.827118 381.247467,328.904480 383.554138,328.981964 
z"/>
<path fill="#FF6CC6" opacity="1.000000" stroke="none" 
	d="
M287.973694,338.599548 
	C289.589417,339.308502 290.847504,340.182220 292.340088,341.218811 
	C286.400604,345.632446 279.241364,345.689697 274.637512,341.931305 
	C270.257782,338.355927 269.039978,331.172089 271.855133,325.517792 
	C274.568573,320.067780 280.600677,317.040863 286.461060,319.263031 
	C289.408356,320.380554 292.414368,323.037567 293.957611,325.800598 
	C296.907349,331.081818 294.946686,333.663757 288.895721,333.681274 
	C285.111755,333.692230 281.327759,333.683319 277.466675,333.683319 
	C278.343658,339.026886 280.173431,339.855743 287.973694,338.599548 
M286.841156,328.967987 
	C287.280334,328.116455 287.719543,327.264923 288.158752,326.413391 
	C286.035858,325.569183 283.859467,323.967346 281.806366,324.112213 
	C280.054596,324.235779 278.444458,326.366791 276.771667,327.609802 
	C277.060669,328.066528 277.349640,328.523254 277.638611,328.979980 
	C280.424622,328.979980 283.210602,328.979980 286.841156,328.967987 
z"/>
<path fill="#FF6CC6" opacity="1.000000" stroke="none" 
	d="
M323.307007,340.632172 
	C323.290039,336.348541 323.266754,332.521942 323.264069,328.695374 
	C323.261810,325.484283 321.921356,323.648773 318.460968,323.840881 
	C315.288330,324.017059 313.608246,325.372955 313.727509,328.827637 
	C313.892975,333.621490 313.769135,338.425354 313.769135,343.712036 
	C311.644867,343.823578 309.918091,343.914276 307.732300,344.029053 
	C307.732300,335.667694 307.732300,327.646271 307.732300,319.619598 
	C312.441956,319.380707 317.061584,318.937103 321.677216,318.975739 
	C325.675262,319.009247 328.442108,321.497162 328.909363,325.295532 
	C329.650116,331.317505 329.676025,337.427429 330.025421,343.889740 
	C326.846466,343.529572 323.607635,345.824097 323.307007,340.632172 
z"/>
<path fill="#C75DE7" opacity="1.000000" stroke="none" 
	d="
M215.434006,110.911415 
	C218.783554,116.071899 221.776886,121.269867 224.912476,126.795731 
	C219.965332,130.147415 214.875916,133.171188 209.401062,135.937500 
	C206.352722,130.144669 203.689819,124.609322 201.026917,119.073975 
	C205.710556,116.365616 210.394180,113.657257 215.434006,110.911415 
z"/>
<path fill="#FF6CC6" opacity="1.000000" stroke="none" 
	d="
M152.106552,338.273895 
	C152.042130,331.873505 152.042130,325.899139 152.042130,319.483459 
	C153.901352,319.483459 155.585281,319.483459 157.907990,319.483459 
	C157.907990,324.483887 157.952255,329.424622 157.891159,334.364014 
	C157.855301,337.263489 158.664383,339.324219 162.037201,339.216034 
	C165.178223,339.115295 167.750748,338.046387 167.875168,334.455811 
	C168.046417,329.513458 167.918060,324.560699 167.918060,319.331848 
	C170.068878,319.331848 171.645813,319.331848 173.569458,319.331848 
	C173.569458,327.363007 173.569458,335.264618 173.569458,343.336823 
	C168.841782,343.772064 164.097321,344.542389 159.353867,344.536377 
	C155.778900,344.531830 153.124390,342.422455 152.106552,338.273895 
z"/>
<path fill="#BB6FEE" opacity="1.000000" stroke="none" 
	d="
M189.024765,160.675201 
	C187.492645,160.112030 185.573547,159.552994 184.778702,158.287689 
	C181.989883,153.848206 179.588104,149.165604 176.985687,144.209030 
	C180.414108,139.308533 183.896240,134.774307 187.722748,130.451248 
	C191.125793,136.301971 194.184448,141.941528 197.243103,147.581085 
	C194.546509,151.839203 191.849915,156.097336 189.024765,160.675201 
z"/>
<path fill="#BB6FEE" opacity="1.000000" stroke="none" 
	d="
M249.466095,280.008118 
	C246.035767,273.740692 243.069885,267.526001 240.118256,260.903259 
	C246.109619,260.628418 252.086746,260.761597 258.537109,261.314209 
	C261.674500,267.448761 264.338684,273.163910 267.002899,278.879028 
	C261.312103,279.272980 255.621323,279.666901 249.466095,280.008118 
z"/>
<path fill="#C166EA" opacity="1.000000" stroke="none" 
	d="
M267.407532,278.899231 
	C264.338684,273.163910 261.674500,267.448761 259.003967,261.353333 
	C264.365723,259.575989 269.733795,258.178955 275.530823,257.121552 
	C276.447693,258.654022 276.920044,259.853546 277.426392,261.038544 
	C279.293945,265.409302 281.172729,269.775269 283.047272,274.143066 
	C277.968903,275.735199 272.890533,277.327332 267.407532,278.899231 
z"/>
<path fill="#C75DE7" opacity="1.000000" stroke="none" 
	d="
M283.419312,274.106598 
	C281.172729,269.775269 279.293945,265.409302 277.426392,261.038544 
	C276.920044,259.853546 276.447693,258.654022 275.925659,257.058044 
	C280.375549,254.178131 284.859558,251.701340 289.712769,249.472260 
	C291.338470,252.033981 292.434509,254.455170 293.890961,256.635620 
	C295.834137,259.544739 298.057312,262.266785 300.160217,265.069153 
	C294.703949,268.069489 289.247681,271.069824 283.419312,274.106598 
z"/>
<path fill="#D14AE1" opacity="1.000000" stroke="none" 
	d="
M311.495789,225.102325 
	C313.930573,228.127472 316.129944,231.338699 318.272339,234.587524 
	C319.797974,236.901123 321.246918,239.265320 322.922180,241.906982 
	C319.659058,246.469803 316.203857,250.732605 312.286072,254.809662 
	C310.750275,252.815140 309.738739,250.966217 308.590942,249.206146 
	C306.326508,245.733719 303.986542,242.310516 301.677826,238.866943 
	C304.863892,234.346130 308.049927,229.825302 311.495789,225.102325 
z"/>
<path fill="#CC54E4" opacity="1.000000" stroke="none" 
	d="
M301.400543,239.030121 
	C303.986542,242.310516 306.326508,245.733719 308.590942,249.206146 
	C309.738739,250.966217 310.750275,252.815140 311.974487,254.961258 
	C308.353119,258.500458 304.580658,261.702271 300.484222,264.986633 
	C298.057312,262.266785 295.834137,259.544739 293.890961,256.635620 
	C292.434509,254.455170 291.338470,252.033981 290.043488,249.368164 
	C293.711090,245.741989 297.417175,242.467651 301.400543,239.030121 
z"/>
<path fill="#C166EA" opacity="1.000000" stroke="none" 
	d="
M197.557159,147.420563 
	C194.184448,141.941528 191.125793,136.301971 188.024826,130.304367 
	C192.113876,126.386681 196.245224,122.827034 200.701752,119.170685 
	C203.689819,124.609322 206.352722,130.144669 209.071442,136.078537 
	C205.375244,140.071396 201.623230,143.665726 197.557159,147.420563 
z"/>
<path fill="#FF6CC6" opacity="1.000000" stroke="none" 
	d="
M200.133789,343.306396 
	C196.709763,343.701996 193.601334,344.295807 190.564774,344.039124 
	C186.878326,343.727509 186.132584,341.609436 188.687302,338.336517 
	C190.096893,338.743042 191.645401,339.568268 193.166351,339.520264 
	C194.643784,339.473633 196.092926,338.531250 197.554474,337.982208 
	C196.782730,336.689209 196.257858,335.107635 195.173538,334.179993 
	C193.957611,333.139740 191.779495,333.063721 190.832382,331.904480 
	C189.060806,329.736023 186.765564,327.114990 186.706696,324.634338 
	C186.618713,320.925995 189.995071,319.049377 193.572296,318.657990 
	C195.495178,318.447540 197.601151,318.627625 199.419388,319.240326 
	C200.457245,319.590027 201.082794,321.163361 201.893997,322.185730 
	C200.740509,322.752563 199.635544,323.500244 198.417648,323.826965 
	C197.503342,324.072205 196.400513,323.576660 195.461899,323.780518 
	C194.608688,323.965851 193.375778,324.516541 193.202988,325.149780 
	C193.015747,325.835968 193.638138,327.132538 194.301270,327.582367 
	C195.798386,328.597870 197.558243,329.217346 199.175613,330.065796 
	C205.170898,333.210602 205.689362,338.479309 200.133789,343.306396 
z"/>
<path fill="#FF6CC6" opacity="1.000000" stroke="none" 
	d="
M345.363098,343.815094 
	C344.430664,342.117950 343.869476,340.541809 342.901215,337.822266 
	C346.347565,338.786285 348.066589,339.636597 349.779633,339.624695 
	C351.056183,339.615845 352.324951,338.491638 353.597168,337.864136 
	C352.919373,336.671814 352.504700,335.138000 351.502930,334.366394 
	C349.956421,333.175293 347.533966,332.910980 346.343781,331.518127 
	C344.648895,329.534698 342.367645,326.552216 342.841766,324.607056 
	C343.395538,322.335297 346.455902,320.418732 348.804504,318.948181 
	C349.976624,318.214325 352.117279,318.427429 353.581055,318.920776 
	C355.184418,319.461182 356.512390,320.818604 357.960388,321.819977 
	C356.411896,322.465546 354.876343,323.144684 353.311127,323.746704 
	C351.905548,324.287262 350.467407,324.743103 349.043640,325.236328 
	C350.068787,326.378418 350.883118,327.909302 352.153900,328.598236 
	C359.355255,332.502258 361.221069,335.099091 359.584045,339.543488 
	C358.004089,343.832886 352.531006,345.568726 345.363098,343.815094 
z"/>
<path fill="#E22FD7" opacity="1.000000" stroke="none" 
	d="
M320.244385,114.446884 
	C322.566071,116.706642 324.760864,119.479202 327.088654,122.135185 
	C328.304749,123.522751 329.754761,124.705307 331.459076,125.984756 
	C328.281342,134.478638 324.743652,142.968216 321.205933,151.457794 
	C320.861511,151.261536 320.517120,151.065277 320.172699,150.869019 
	C320.172699,138.883118 320.172699,126.897224 320.244385,114.446884 
z"/>
<path fill="#FF6EC7" opacity="1.000000" stroke="none" 
	d="
M220.006927,319.017426 
	C222.336426,319.128448 224.695068,318.402710 224.682205,321.643921 
	C224.653366,328.914337 224.673157,336.184998 224.673157,343.726990 
	C222.367188,343.726990 220.615723,343.726990 218.161194,343.726990 
	C218.161194,339.517151 218.329437,335.411163 218.103592,331.326965 
	C217.946228,328.481049 218.678513,325.867767 215.781799,322.976929 
	C212.971680,320.172485 216.500671,318.802673 220.006927,319.017426 
z"/>
<path fill="#1EC4E1" opacity="1.000000" stroke="none" 
	d="
M273.975098,375.307861 
	C274.058990,378.319916 274.058990,380.952759 274.058990,385.309021 
	C272.345795,383.524048 271.119324,382.790527 270.788361,381.767365 
	C270.347717,380.404938 270.850067,378.750549 270.471222,377.350403 
	C270.233215,376.470703 269.122192,375.827240 268.402832,375.077789 
	C267.660828,375.835785 266.443329,376.500092 266.271881,377.370453 
	C265.865875,379.431915 265.956421,381.591217 265.787964,384.831940 
	C264.258545,383.693268 263.127106,383.229675 262.663788,382.395142 
	C262.234955,381.622681 262.751373,380.373566 262.440857,379.476471 
	C261.914154,377.954712 261.064545,376.544708 260.350616,375.087738 
	C259.567993,376.638763 258.598694,378.128754 258.064941,379.761169 
	C257.676147,380.950317 257.862000,382.327393 257.791748,383.619019 
	C253.750381,383.393799 253.480698,382.369629 254.775360,371.865448 
	C259.677795,371.865448 264.721985,371.640503 269.722992,372.005981 
	C271.175842,372.112152 272.505219,373.907562 273.975098,375.307861 
z"/>
<path fill="#24C6E2" opacity="1.000000" stroke="none" 
	d="
M131.672028,377.159363 
	C133.424149,369.069244 139.556473,373.178680 144.276459,372.042816 
	C144.276459,376.441803 144.804001,380.715546 144.132782,384.791931 
	C143.416077,389.144501 136.960983,390.672150 133.806229,387.468109 
	C133.160721,386.812531 133.496292,385.190948 134.301971,383.942444 
	C133.406570,381.800598 132.511185,379.658783 131.672028,377.159363 
M136.982498,380.442413 
	C138.319962,379.670593 139.770203,379.024780 140.896286,378.016815 
	C141.111847,377.823822 140.255066,375.642456 139.529938,375.379456 
	C138.514725,375.011200 136.263611,375.319366 136.122070,375.801880 
	C135.745773,377.084778 136.216232,378.616028 136.982498,380.442413 
M136.332458,385.130249 
	C137.579636,385.237000 138.826813,385.343750 140.073990,385.450500 
	C140.076065,384.892120 140.078140,384.333740 140.080215,383.775360 
	C138.784668,383.949463 137.489136,384.123566 136.332458,385.130249 
z"/>
<path fill="#24C6E2" opacity="1.000000" stroke="none" 
	d="
M241.577148,371.943909 
	C247.950150,372.485748 248.959793,374.600769 247.338730,385.098633 
	C245.934204,383.471008 244.758545,382.654633 244.415558,381.574005 
	C243.979248,380.199371 244.410019,378.567383 244.087067,377.131805 
	C243.914307,376.363892 242.943695,375.775452 242.333130,375.106018 
	C241.569458,375.812286 240.378006,376.398712 240.138977,377.251953 
	C239.747391,378.649658 240.185684,380.268372 239.862015,381.700775 
	C239.669235,382.553894 238.689484,383.229156 238.063538,383.984375 
	C237.442734,383.207581 236.578690,382.521210 236.249603,381.635986 
	C235.459274,379.510040 234.696121,375.360870 234.313751,375.405212 
	C230.106140,375.893280 232.726501,379.523956 231.796234,381.654938 
	C231.333435,382.715057 230.201965,383.483246 229.372971,384.383484 
	C229.020065,384.130737 228.667160,383.877991 228.314255,383.625244 
	C228.314255,379.886658 228.314255,376.148071 228.314255,372.007629 
	C232.785446,372.007629 237.007431,372.007629 241.577148,371.943909 
z"/>
<path fill="#1BC4E1" opacity="1.000000" stroke="none" 
	d="
M89.076706,377.790924 
	C89.911896,381.576172 88.440399,383.633484 85.045517,384.094269 
	C81.344910,384.596527 78.042038,384.093384 76.960930,378.844482 
	C79.958275,379.632843 82.515594,380.305481 85.072914,380.978119 
	C85.273430,380.401703 85.473946,379.825287 85.674461,379.248871 
	C84.505417,378.619049 83.172913,378.174622 82.202675,377.319305 
	C80.397957,375.728210 78.804344,373.897675 77.122871,372.166779 
	C78.718147,370.764221 80.120056,368.586670 81.951271,368.129822 
	C85.182014,367.323761 88.244255,368.243408 89.149086,373.130493 
	C86.309845,372.400391 83.914436,371.784393 81.519020,371.168427 
	C81.339966,371.640350 81.160912,372.112274 80.981857,372.584198 
	C83.637909,374.207642 86.293961,375.831085 89.076706,377.790924 
z"/>
<path fill="#1EC4E1" opacity="1.000000" stroke="none" 
	d="
M319.278229,372.837585 
	C321.535339,372.316132 323.451630,372.001190 325.798065,371.615570 
	C325.909271,371.075012 325.902771,370.056488 326.336151,369.285034 
	C326.802460,368.454834 327.681244,367.856293 328.380066,367.156677 
	C328.915588,367.995972 329.885834,368.820862 329.914215,369.676941 
	C330.067261,374.295715 329.986664,378.922272 329.986664,383.973572 
	C325.646149,382.584503 320.158508,386.927002 317.608826,381.091614 
	C316.695618,379.001617 318.417999,375.760071 319.278229,372.837585 
M324.370941,380.973053 
	C324.875000,379.452362 325.633179,377.944458 325.710571,376.402344 
	C325.730743,375.999908 323.496124,374.946503 322.543213,375.183136 
	C321.575958,375.423309 320.065491,377.385529 320.266998,377.729187 
	C321.037994,379.043884 322.402344,380.010590 324.370941,380.973053 
z"/>
<path fill="#1EC4E1" opacity="1.000000" stroke="none" 
	d="
M282.835480,372.901367 
	C289.620514,370.884125 291.886719,372.188141 292.933594,378.772675 
	C290.070496,378.939026 287.233948,379.103851 284.397400,379.268677 
	C284.393494,379.630249 284.389618,379.991821 284.385712,380.353394 
	C286.966644,380.353394 289.547577,380.353394 292.193420,380.353394 
	C290.129547,384.279419 286.368256,385.426422 282.942261,383.277191 
	C279.429077,381.073181 279.274323,377.345398 282.835480,372.901367 
z"/>
<path fill="#1EC4E1" opacity="1.000000" stroke="none" 
	d="
M312.895294,414.969543 
	C308.848450,413.192657 307.577454,409.872620 309.318939,406.723145 
	C310.380585,404.803101 313.647400,403.264313 316.027588,403.104858 
	C319.739685,402.856232 321.249268,405.861542 321.723694,409.723480 
	C318.706390,409.941254 315.894165,410.144226 313.081940,410.347198 
	C313.103607,410.827942 313.125275,411.308716 313.146912,411.789459 
	C315.599030,411.645416 318.051147,411.501373 320.850922,411.336884 
	C319.428040,415.348358 316.461975,415.447083 312.895294,414.969543 
z"/>
<path fill="#1EC4E1" opacity="1.000000" stroke="none" 
	d="
M183.663834,379.037628 
	C181.274048,379.046173 179.305756,379.046173 177.337463,379.046173 
	C177.314316,379.458496 177.291168,379.870819 177.268021,380.283142 
	C179.754868,380.283142 182.241730,380.283142 185.236191,380.283142 
	C183.423248,384.344208 180.496353,384.767456 177.308685,383.955688 
	C173.883484,383.083405 172.105240,380.235901 173.230011,377.184601 
	C174.018051,375.046814 176.542206,372.860535 178.768967,372.105560 
	C181.978271,371.017395 184.518127,373.105103 185.498444,376.343231 
	C185.707199,377.032715 184.591080,378.123291 183.663834,379.037628 
z"/>
<path fill="#D058E4" opacity="1.000000" stroke="none" 
	d="
M278.406891,210.976105 
	C275.707153,207.155472 273.107849,203.348953 270.909882,199.323318 
	C263.557892,185.858017 256.349426,172.314346 249.043549,158.451019 
	C249.857147,157.981430 250.713165,157.861496 251.781128,157.891174 
	C252.528091,159.756866 252.800461,161.614868 253.639114,163.166840 
	C261.278656,177.304001 269.003235,191.395386 276.752014,205.473114 
	C277.376587,206.607819 278.366089,207.541656 279.465759,208.718811 
	C279.394073,209.542465 279.042633,210.216156 278.406891,210.976105 
z"/>
<path fill="#1BC4E1" opacity="1.000000" stroke="none" 
	d="
M344.788574,383.583038 
	C343.582306,383.574799 342.794922,383.883270 341.985229,383.961945 
	C339.257019,384.227020 336.269043,384.422119 336.048157,380.658936 
	C335.845581,377.206909 338.557190,376.938995 341.201355,376.893951 
	C342.062561,376.879303 342.919891,376.637787 343.778992,376.500031 
	C343.738831,376.058258 343.698669,375.616486 343.658478,375.174713 
	C341.546844,375.350708 339.435181,375.526733 336.984650,375.731018 
	C337.804321,371.480957 340.804901,371.555481 343.674133,372.048889 
	C347.145569,372.645874 348.085022,375.490906 347.690063,378.428314 
	C347.439728,380.289978 349.947906,383.904877 344.788574,383.583038 
z"/>
<path fill="#24C6E2" opacity="1.000000" stroke="none" 
	d="
M177.464874,407.227722 
	C178.769409,405.422668 179.909164,403.955505 181.048920,402.488312 
	C181.609650,402.850830 182.170364,403.213348 182.731079,403.575867 
	C180.899384,408.077209 179.279739,412.685028 177.106094,417.014679 
	C176.458542,418.304565 174.303101,418.920319 172.731644,419.596405 
	C172.401169,419.738556 171.601334,418.789703 171.017776,418.343567 
	C172.021408,417.244873 173.025040,416.146179 174.403534,414.637146 
	C172.980911,411.234680 171.411728,407.481750 169.842545,403.728790 
	C170.255936,403.355255 170.669312,402.981750 171.082687,402.608215 
	C172.358871,403.901794 173.571854,405.268036 174.939346,406.456573 
	C175.570663,407.005280 176.503799,407.206726 177.464874,407.227722 
z"/>
<path fill="#1BC4E1" opacity="1.000000" stroke="none" 
	d="
M400.265930,378.954590 
	C399.886414,381.363647 401.527069,384.969360 396.606903,383.556213 
	C396.606903,381.189026 396.606934,378.877960 396.606934,376.566925 
	C396.606934,375.262238 396.606903,373.957520 396.606903,372.268433 
	C398.088898,372.359131 399.162537,372.526276 400.225281,372.473541 
	C407.700531,372.102570 409.687256,374.101685 408.698700,381.391571 
	C408.571899,382.326569 407.373322,383.116241 406.671265,383.973267 
	C406.130219,383.141632 405.422272,382.368988 405.100433,381.459717 
	C404.839050,380.721222 405.264221,379.734283 404.989227,379.007141 
	C404.473145,377.642609 403.670929,376.386200 402.987732,375.084839 
	C402.083344,376.228729 401.178925,377.372589 400.265930,378.954590 
z"/>
<path fill="#1EC4E1" opacity="1.000000" stroke="none" 
	d="
M200.270447,410.414795 
	C198.070557,412.266785 196.124756,414.614044 193.811966,415.060547 
	C190.382080,415.722748 187.734070,413.550232 187.210419,409.880280 
	C186.725357,406.480621 188.380341,403.966522 191.699585,403.161316 
	C195.146439,402.325195 198.391190,402.904724 199.964676,406.681122 
	C200.384048,407.687592 200.243729,408.927216 200.270447,410.414795 
M191.967804,411.564026 
	C194.575043,412.580536 196.726608,412.167389 196.752579,409.020081 
	C196.760834,408.020508 194.834579,406.147095 193.805252,406.155243 
	C190.514389,406.181213 190.427750,408.458771 191.967804,411.564026 
z"/>
<path fill="#1EC4E1" opacity="1.000000" stroke="none" 
	d="
M382.499756,372.041168 
	C385.399719,373.122406 388.471069,373.740417 390.186340,375.605560 
	C391.158356,376.662537 390.685516,380.596588 389.463898,381.741547 
	C387.835266,383.267914 384.663086,384.220093 382.496796,383.769745 
	C380.676453,383.391296 378.596252,380.889679 377.970001,378.905426 
	C376.950287,375.674316 378.858063,373.250214 382.499756,372.041168 
M385.368225,375.066986 
	C382.459473,374.691681 380.609924,375.841705 381.404755,378.853729 
	C381.662842,379.831665 384.133453,381.163116 385.097015,380.842987 
	C388.069794,379.855255 387.846405,377.642914 385.368225,375.066986 
z"/>
<path fill="#1EC4E1" opacity="1.000000" stroke="none" 
	d="
M214.422882,407.965942 
	C214.700195,405.553497 213.490616,402.446869 217.799835,403.286713 
	C217.799835,407.161255 217.799835,410.915100 217.799835,414.937927 
	C216.568634,414.806396 215.617630,414.576294 214.681183,414.625153 
	C207.065536,415.022461 205.248734,413.216339 206.171844,405.745239 
	C206.289734,404.791016 207.444809,403.964966 208.119385,403.079529 
	C208.698349,403.898468 209.452576,404.650146 209.800858,405.557587 
	C210.079987,406.284790 209.646469,407.282806 209.918732,408.015991 
	C210.426697,409.383942 211.217728,410.646820 211.890961,411.953400 
	C212.732544,410.770844 213.574127,409.588318 214.422882,407.965942 
z"/>
<path fill="#1EC4E1" opacity="1.000000" stroke="none" 
	d="
M117.653130,378.205444 
	C116.963058,380.571564 119.324409,384.463104 114.173294,383.779602 
	C114.173294,379.871887 114.173294,376.116150 114.173294,372.095825 
	C115.515503,372.295349 116.626907,372.665222 117.706329,372.587982 
	C124.937569,372.070496 127.489594,374.939392 125.890213,382.065979 
	C125.727852,382.789490 124.805954,383.342499 124.236511,383.974609 
	C123.566391,383.254547 122.583244,382.636871 122.305687,381.788391 
	C121.961380,380.735870 122.416412,379.435577 122.129784,378.346649 
	C121.828094,377.200470 121.058556,376.177460 120.493439,375.100616 
	C119.556862,375.991638 118.620300,376.882660 117.653130,378.205444 
z"/>
<path fill="#1EC4E1" opacity="1.000000" stroke="none" 
	d="
M301.606323,383.827972 
	C300.457642,383.371185 299.121246,382.808350 299.077576,382.158630 
	C298.858307,378.896637 298.977051,375.611938 298.977051,372.002991 
	C300.424316,372.281647 301.369232,372.645477 302.301025,372.614380 
	C310.176025,372.351807 312.008850,374.196228 310.890778,381.631622 
	C310.763306,382.479340 309.768372,383.196594 309.175659,383.974365 
	C308.525269,383.233917 307.534180,382.584869 307.305237,381.731384 
	C306.971954,380.488861 307.468414,379.009583 307.082886,377.799561 
	C306.755127,376.770782 305.680328,375.980042 304.936035,375.083984 
	C304.183899,376.002991 303.053253,376.817047 302.762848,377.864136 
	C302.245544,379.729065 302.236420,381.734924 301.606323,383.827972 
z"/>
<path fill="#24C6E2" opacity="1.000000" stroke="none" 
	d="
M420.503937,376.614624 
	C421.976776,378.110046 423.449646,379.605438 424.922516,381.100830 
	C423.609344,382.153839 422.419617,383.837952 420.956421,384.124237 
	C418.186127,384.666290 415.343048,384.267212 414.481018,379.948242 
	C416.801086,380.402069 418.697144,380.772980 420.593231,381.143860 
	C420.697083,380.808472 420.800934,380.473053 420.904816,380.137634 
	C419.653778,379.654480 418.100372,379.476471 417.227600,378.611572 
	C416.115295,377.509430 415.553467,375.851837 414.754333,374.433655 
	C416.532684,373.579926 418.284973,372.140778 420.097748,372.060089 
	C421.514191,371.997009 423.005737,373.619995 424.463898,374.493805 
	C423.607941,374.931610 422.751984,375.369415 421.355743,375.495697 
	C420.034485,375.139465 419.253540,375.094727 418.472595,375.049957 
	C418.427185,375.303314 418.381775,375.556641 418.336395,375.809967 
	C419.058899,376.078186 419.781403,376.346405 420.503937,376.614624 
z"/>
<path fill="#24C6E2" opacity="1.000000" stroke="none" 
	d="
M191.274017,380.304382 
	C190.491974,375.954865 191.618164,372.873444 195.892746,372.043945 
	C199.408859,371.361664 202.368210,372.257843 203.688782,377.358673 
	C201.683807,376.545349 200.473816,375.768616 199.188828,375.613708 
	C197.904282,375.458893 196.161591,375.506775 195.341827,376.255920 
	C194.709717,376.833618 194.688400,379.173553 195.309479,379.757050 
	C196.120239,380.518738 197.872086,380.619568 199.147568,380.454041 
	C200.544891,380.272705 201.860809,379.464050 203.930801,378.644135 
	C200.775620,385.591705 195.741104,386.027710 191.274017,380.304382 
z"/>
<path fill="#1BC4E1" opacity="1.000000" stroke="none" 
	d="
M221.363373,374.918396 
	C222.537201,378.354828 222.674683,381.713165 219.351883,383.008789 
	C217.053329,383.905029 213.735077,383.803345 211.533768,382.756683 
	C210.093521,382.071930 209.045242,378.802216 209.285507,376.872559 
	C209.496857,375.174927 211.686844,372.503265 213.101410,372.439331 
	C215.741623,372.320068 218.453247,373.780853 221.363373,374.918396 
M214.060089,375.195953 
	C213.705643,376.751892 212.981598,378.361450 213.195190,379.835052 
	C213.270996,380.358063 215.762878,381.041870 216.898712,380.730103 
	C217.729584,380.502075 218.895081,378.164551 218.612015,377.812744 
	C217.650772,376.617981 216.112549,375.887482 214.060089,375.195953 
z"/>
<path fill="#1BC4E1" opacity="1.000000" stroke="none" 
	d="
M283.745544,404.112885 
	C286.640747,406.987213 287.356537,410.532440 284.717224,412.721924 
	C282.746063,414.357117 278.863586,414.889923 276.314087,414.180847 
	C274.755493,413.747375 273.184021,410.009094 273.248474,407.802673 
	C273.374512,403.487427 277.717651,402.041382 283.745544,404.112885 
M281.052246,406.203613 
	C279.572418,406.792572 277.889648,407.137482 276.725098,408.105682 
	C276.329010,408.434967 276.896057,410.966705 277.632965,411.365784 
	C278.692200,411.939423 281.325836,411.860138 281.498444,411.395294 
	C282.021118,409.987671 281.682404,408.260223 281.052246,406.203613 
z"/>
<path fill="#1BC4E1" opacity="1.000000" stroke="none" 
	d="
M103.536415,372.076569 
	C107.960159,373.788849 109.061699,376.977783 107.592384,380.671753 
	C106.219017,384.124420 102.953049,384.783295 99.592308,383.972290 
	C96.186470,383.150391 94.575760,380.701904 95.053398,377.269043 
	C95.706352,372.576111 99.026459,371.595978 103.536415,372.076569 
M100.772713,381.063202 
	C102.103661,380.185089 103.658394,379.491547 104.628220,378.315582 
	C104.916428,377.966125 103.760887,375.598541 102.909462,375.342010 
	C101.796219,375.006592 99.293312,375.687317 99.210457,376.216309 
	C98.980972,377.681427 99.696709,379.294525 100.772713,381.063202 
z"/>
<path fill="#1EC4E1" opacity="1.000000" stroke="none" 
	d="
M295.674072,406.110504 
	C296.276062,407.489197 296.732849,408.527252 297.201294,409.591766 
	C299.849030,407.909363 298.096558,401.961853 303.966553,403.394806 
	C302.564484,406.839996 301.474335,410.130646 299.911652,413.179016 
	C298.471771,415.987793 296.336121,416.018707 294.874634,413.168976 
	C293.315735,410.129303 292.175568,406.874878 290.852570,403.714233 
	C291.280945,403.340881 291.709320,402.967529 292.137665,402.594177 
	C293.268066,403.652740 294.398468,404.711304 295.674072,406.110504 
z"/>
<path fill="#1EC4E1" opacity="1.000000" stroke="none" 
	d="
M360.876617,383.954956 
	C356.991364,384.121094 355.413269,382.364502 355.054626,378.965088 
	C354.854401,377.067749 354.048370,375.234375 353.384613,372.915405 
	C354.933533,372.623230 357.271301,372.182220 359.609070,371.741241 
	C358.895935,370.695740 358.182800,369.650208 357.469666,368.604706 
	C357.923096,371.179565 358.376526,373.754425 358.829956,376.329285 
	C358.314667,376.154572 356.685608,378.941925 361.906097,381.825928 
	C362.040100,381.899994 361.505280,383.184753 360.876617,383.954956 
z"/>
<path fill="#24C6E2" opacity="1.000000" stroke="none" 
	d="
M237.641968,398.740723 
	C237.872055,404.203613 237.872055,409.291260 237.872055,415.898315 
	C236.165405,414.528900 234.450607,413.817627 234.397873,412.999268 
	C234.122925,408.730957 234.137009,404.426880 234.411362,400.158417 
	C234.453720,399.499237 236.364960,398.960144 237.641968,398.740723 
z"/>
<path fill="#1BC4E1" opacity="1.000000" stroke="none" 
	d="
M160.019135,382.562714 
	C159.978424,378.853333 159.978424,375.594086 159.978424,372.438904 
	C162.790237,372.438904 165.131241,372.438904 167.483124,372.438904 
	C167.578583,372.545654 167.803482,372.742889 167.780151,372.778809 
	C165.589920,376.149963 162.531082,379.133423 162.989212,383.670959 
	C162.012756,383.451599 161.036301,383.232208 160.019135,382.562714 
z"/>
<path fill="#1BC4E1" opacity="1.000000" stroke="none" 
	d="
M266.668396,398.676270 
	C267.010956,403.333618 267.175385,407.633636 267.064667,411.926575 
	C267.038330,412.947968 266.091614,413.945618 265.568237,414.954193 
	C264.968903,414.015045 263.903351,413.100403 263.852539,412.132446 
	C263.653229,408.337128 263.617432,404.513519 263.894867,400.727814 
	C263.957916,399.867676 265.518372,399.117279 266.668396,398.676270 
z"/>
<path fill="#1BC4E1" opacity="1.000000" stroke="none" 
	d="
M244.765778,407.956238 
	C244.766479,405.491547 244.555435,403.476685 244.846970,401.537445 
	C245.023956,400.360321 245.977890,399.300049 246.582794,398.187286 
	C247.101166,399.212036 248.013092,400.216675 248.066574,401.265106 
	C248.251587,404.891144 248.260193,408.539307 248.055054,412.163177 
	C248.000854,413.120789 246.936768,414.021271 246.336380,414.947968 
	C245.815842,414.099945 245.027847,413.306885 244.839523,412.390594 
	C244.578690,411.121643 244.768845,409.759949 244.765778,407.956238 
z"/>
<path fill="#24C6E2" opacity="1.000000" stroke="none" 
	d="
M371.799377,382.522705 
	C370.537872,382.807709 368.300720,382.732330 368.279633,382.475281 
	C368.037231,379.518127 368.026917,376.526306 368.230347,373.562561 
	C368.267487,373.021301 369.632233,372.085510 370.217957,372.197876 
	C370.862885,372.321625 371.727875,373.415558 371.779022,374.137695 
	C371.965759,376.772980 371.853027,379.429443 371.799377,382.522705 
z"/>
<path fill="#24C6E2" opacity="1.000000" stroke="none" 
	d="
M331.144684,401.957581 
	C331.097656,403.999268 331.245422,405.670227 330.974457,407.270325 
	C330.821503,408.173828 329.979614,408.960663 329.448059,409.800079 
	C328.748627,408.925842 327.615295,408.129425 327.441620,407.160919 
	C327.098480,405.247192 327.097748,403.214142 327.344482,401.280090 
	C327.447998,400.468689 328.540588,399.783478 329.183533,399.040894 
	C329.843781,399.879669 330.503998,400.718414 331.144684,401.957581 
z"/>
<path fill="#FF6EC7" opacity="1.000000" stroke="none" 
	d="
M224.581757,311.645569 
	C223.697372,313.333405 222.847290,314.967407 221.504929,315.866028 
	C221.073074,316.155060 218.859879,314.731537 218.364471,313.670074 
	C217.984283,312.855591 218.969650,310.399567 219.437927,310.374756 
	C221.079239,310.287720 222.759583,310.936829 224.581757,311.645569 
z"/>
<path fill="#F8FAFC" opacity="1.000000" stroke="none" 
	d="
M383.115692,328.981934 
	C381.247467,328.904480 379.817719,328.827118 378.205719,328.739899 
	C378.558685,324.887146 380.729095,323.775177 383.909637,323.831390 
	C386.905945,323.884338 388.968903,324.904114 388.984161,328.981964 
	C387.045410,328.981964 385.299774,328.981964 383.115692,328.981934 
z"/>
<path fill="#F8FAFC" opacity="1.000000" stroke="none" 
	d="
M286.418884,328.973999 
	C283.210602,328.979980 280.424622,328.979980 277.638611,328.979980 
	C277.349640,328.523254 277.060669,328.066528 276.771667,327.609802 
	C278.444458,326.366791 280.054596,324.235779 281.806366,324.112213 
	C283.859467,323.967346 286.035858,325.569183 288.158752,326.413391 
	C287.719543,327.264923 287.280334,328.116455 286.418884,328.973999 
z"/>
<path fill="#E3F5F9" opacity="1.000000" stroke="none" 
	d="
M136.666229,380.245483 
	C136.216232,378.616028 135.745773,377.084778 136.122070,375.801880 
	C136.263611,375.319366 138.514725,375.011200 139.529938,375.379456 
	C140.255066,375.642456 141.111847,377.823822 140.896286,378.016815 
	C139.770203,379.024780 138.319962,379.670593 136.666229,380.245483 
z"/>
<path fill="#F8FAFC" opacity="1.000000" stroke="none" 
	d="
M136.263031,384.713959 
	C137.489136,384.123566 138.784668,383.949463 140.080215,383.775360 
	C140.078140,384.333740 140.076065,384.892120 140.073990,385.450500 
	C138.826813,385.343750 137.579636,385.237000 136.263031,384.713959 
z"/>
<path fill="#E3F5F9" opacity="1.000000" stroke="none" 
	d="
M323.958069,381.040131 
	C322.402344,380.010590 321.037994,379.043884 320.266998,377.729187 
	C320.065491,377.385529 321.575958,375.423309 322.543213,375.183136 
	C323.496124,374.946503 325.730743,375.999908 325.710571,376.402344 
	C325.633179,377.944458 324.875000,379.452362 323.958069,381.040131 
z"/>
<path fill="#F8FAFC" opacity="1.000000" stroke="none" 
	d="
M191.674652,411.269653 
	C190.427750,408.458771 190.514389,406.181213 193.805252,406.155243 
	C194.834579,406.147095 196.760834,408.020508 196.752579,409.020081 
	C196.726608,412.167389 194.575043,412.580536 191.674652,411.269653 
z"/>
<path fill="#E3F5F9" opacity="1.000000" stroke="none" 
	d="
M385.735229,375.250549 
	C387.846405,377.642914 388.069794,379.855255 385.097015,380.842987 
	C384.133453,381.163116 381.662842,379.831665 381.404755,378.853729 
	C380.609924,375.841705 382.459473,374.691681 385.735229,375.250549 
z"/>
<path fill="#F8FAFC" opacity="1.000000" stroke="none" 
	d="
M420.678711,376.403351 
	C419.781403,376.346405 419.058899,376.078186 418.336395,375.809967 
	C418.381775,375.556641 418.427185,375.303314 418.472595,375.049957 
	C419.253540,375.094727 420.034485,375.139465 421.008759,375.476440 
	C421.085876,375.909821 420.969666,376.050934 420.678711,376.403351 
z"/>
<path fill="#E3F5F9" opacity="1.000000" stroke="none" 
	d="
M214.427399,375.087799 
	C216.112549,375.887482 217.650772,376.617981 218.612015,377.812744 
	C218.895081,378.164551 217.729584,380.502075 216.898712,380.730103 
	C215.762878,381.041870 213.270996,380.358063 213.195190,379.835052 
	C212.981598,378.361450 213.705643,376.751892 214.427399,375.087799 
z"/>
<path fill="#E3F5F9" opacity="1.000000" stroke="none" 
	d="
M281.365784,406.430481 
	C281.682404,408.260223 282.021118,409.987671 281.498444,411.395294 
	C281.325836,411.860138 278.692200,411.939423 277.632965,411.365784 
	C276.896057,410.966705 276.329010,408.434967 276.725098,408.105682 
	C277.889648,407.137482 279.572418,406.792572 281.365784,406.430481 
z"/>
<path fill="#E3F5F9" opacity="1.000000" stroke="none" 
	d="
M100.405777,380.956177 
	C99.696709,379.294525 98.980972,377.681427 99.210457,376.216309 
	C99.293312,375.687317 101.796219,375.006592 102.909462,375.342010 
	C103.760887,375.598541 104.916428,377.966125 104.628220,378.315582 
	C103.658394,379.491547 102.103661,380.185089 100.405777,380.956177 
z"/>
</svg>